<svg version="1.1" id="Layer_1" xmlns="http://www.w3.org/2000/svg" xmlns:xlink="http://www.w3.org/1999/xlink" x="0px" y="0px"
	 width="100%" viewBox="0 0 1024 1024" enable-background="new 0 0 1024 1024" xml:space="preserve">
<path fill="#000000" opacity="1.000000" stroke="none" 
	d="
M334.440674,764.403809 
	C290.144501,765.479736 249.891037,755.925720 217.910370,723.625488 
	C198.170227,703.688110 186.056061,679.483337 180.881622,651.880188 
	C180.427216,649.456055 179.876846,646.683533 181.228882,644.528687 
	C182.884048,641.890747 180.078003,640.681152 180.002365,638.616821 
	C179.502426,624.969238 179.141846,611.336182 181.283081,597.777039 
	C181.320984,597.536926 181.739548,597.356995 182.204605,596.955505 
	C184.271439,598.105530 183.392578,600.036560 183.333099,601.661743 
	C182.828079,615.462952 182.585709,629.442505 185.204117,642.883789 
	C187.961746,657.039795 193.406723,670.651733 201.740128,682.791260 
	C218.732117,707.543884 242.263306,723.316833 270.412445,732.651917 
	C292.763763,740.064209 315.722900,741.171082 338.990784,738.885010 
	C378.533020,735.000061 413.836029,719.405823 447.188019,699.000977 
	C487.439789,674.374817 522.153015,643.200745 553.120667,607.655029 
	C589.017761,566.451050 617.776062,520.886169 637.973267,470.093811 
	C645.097656,452.177307 651.853394,434.054504 655.969421,415.113373 
	C656.106873,414.481018 656.149658,413.828094 656.231934,413.219177 
	C654.275146,411.426086 651.825439,413.900177 649.900818,412.105713 
	C649.284912,410.324860 650.380066,408.722809 651.647400,407.948730 
	C660.154480,402.752472 660.887939,393.863556 662.517761,385.456940 
	C664.227356,376.639404 665.036682,367.705902 665.136963,358.229095 
	C663.175903,359.720428 662.343079,361.646545 661.397156,363.431366 
	C635.938171,411.470459 606.611816,457.176575 577.240112,502.851288 
	C558.923950,531.333862 538.924744,558.587952 516.537659,584.020020 
	C493.578735,610.101562 468.455872,633.870605 440.522766,654.643188 
	C418.917145,670.710327 396.361938,685.065613 371.167236,694.890503 
	C359.830475,699.311279 348.162781,702.627441 336.190521,704.863220 
	C333.305725,705.401978 330.552795,705.418335 329.903534,701.931274 
	C329.272522,698.542297 332.031830,697.937195 334.580566,697.376404 
	C380.827240,687.199219 418.869232,661.974304 454.523865,632.233215 
	C492.938538,600.189819 525.266724,562.650635 553.989746,521.947510 
	C575.697693,491.185364 595.664185,459.257690 614.977966,426.935181 
	C624.801270,410.495453 635.399170,394.519257 644.496948,377.646851 
	C645.395081,375.981110 646.685120,374.367981 646.416199,371.130157 
	C640.149963,376.772949 634.215088,381.267517 630.096619,387.921661 
	C601.182922,434.637329 574.586182,482.840942 541.589966,526.946411 
	C508.305511,571.437195 469.944824,610.675049 422.891876,640.864014 
	C393.748779,659.562012 362.908661,674.113159 328.455597,679.836365 
	C299.463348,684.652527 270.805542,683.735901 244.057617,670.417358 
	C214.742111,655.820251 198.092010,631.213074 192.695358,599.131592 
	C187.218399,566.572693 195.224045,536.031982 207.842773,506.376190 
	C215.634201,488.065277 225.307800,470.799561 237.780869,455.202698 
	C238.922531,453.775085 240.135269,452.393890 241.417252,451.091797 
	C242.702164,449.786652 244.255630,449.397095 245.973312,450.290161 
	C247.831131,451.256042 248.643127,452.851746 248.237137,454.844849 
	C247.944305,456.282440 247.391617,457.711243 246.714966,459.019958 
	C233.774109,484.048187 228.293472,510.718323 230.473740,538.693848 
	C232.668060,566.849731 243.396545,590.577332 268.991852,605.407898 
	C280.799591,612.249634 293.704742,614.848022 307.271637,615.116455 
	C331.419464,615.594238 353.511749,608.449036 374.710144,597.659241 
	C404.907928,582.288818 430.561005,560.963806 454.427124,537.222534 
	C483.500732,508.301117 510.488068,477.438507 538.446899,447.479248 
	C577.897461,405.206116 617.700256,363.260834 662.992188,327.015167 
	C665.139160,325.296967 666.046021,323.325836 666.035950,320.587372 
	C665.834778,265.739380 648.774475,217.954346 607.328186,180.406769 
	C602.641541,176.160980 597.622864,172.282043 592.225952,168.933151 
	C590.811523,168.055466 589.400269,167.160538 588.067627,166.166229 
	C586.184082,164.760895 584.896973,163.010849 586.378723,160.638809 
	C587.801941,158.360413 589.883179,158.429062 592.080627,159.473145 
	C601.442566,163.921356 610.255554,169.302399 618.536072,175.507477 
	C660.896973,207.251099 687.117188,249.166687 697.455627,301.056763 
	C697.578064,301.670959 697.943176,302.236786 698.437134,303.390808 
	C704.612671,300.164490 710.496948,296.860413 716.572205,293.955719 
	C744.807678,280.455780 774.344727,271.577972 805.821655,271.029602 
	C834.834595,270.524170 861.885620,277.433411 885.461365,295.217163 
	C887.829590,297.003601 889.920166,299.212219 891.906128,301.433594 
	C893.369934,303.070953 894.587891,305.231140 893.055969,307.335571 
	C891.440369,309.555023 889.076721,308.530640 887.116638,307.707214 
	C876.045898,303.056549 864.480347,301.145874 852.536560,301.330383 
	C830.159729,301.676086 809.306274,307.784058 789.334534,317.647095 
	C762.071655,331.110809 738.508179,349.903168 714.852417,368.596466 
	C712.892700,370.145111 711.144165,372.047058 709.001343,373.262787 
	C700.557678,378.053223 697.817444,385.549347 696.276001,394.835541 
	C688.282288,442.991943 672.384155,488.508148 649.137573,531.470764 
	C612.904724,598.433472 562.975403,653.425659 502.044006,698.490601 
	C469.341919,722.677246 433.892761,742.166260 394.661011,753.911804 
	C375.183350,759.743225 355.344116,763.935852 334.440674,764.403809 
M472.521637,566.048767 
	C503.143494,534.662842 529.454346,499.979584 552.113770,462.485352 
	C537.331482,477.880798 522.958557,493.596924 508.765350,509.473755 
	C485.325836,535.693726 461.644135,561.657898 434.119843,583.767944 
	C410.587585,602.671204 385.461945,618.814636 356.400635,627.946960 
	C337.600311,633.854797 318.426117,636.452637 298.813049,632.817566 
	C268.400024,627.180725 248.046051,608.575195 234.075699,581.993530 
	C224.985474,564.697327 222.250458,545.950439 222.009735,526.628906 
	C221.230774,529.007690 220.714569,531.394348 220.181976,533.777344 
	C215.711151,553.782104 213.954773,573.973877 218.441635,594.122070 
	C226.961731,632.381653 252.556351,653.419495 290.419159,656.492920 
	C320.740021,658.954285 349.186096,650.848633 376.207855,637.633423 
	C412.514557,619.877136 444.187378,595.765625 472.521637,566.048767 
M812.232361,292.500488 
	C806.601685,292.858765 800.925415,292.878601 795.347900,293.631134 
	C763.237305,297.963409 733.417847,308.793732 705.647278,325.459412 
	C702.199158,327.528748 700.743713,329.855927 700.980652,333.881714 
	C701.430603,341.525909 701.439148,349.177185 700.495361,356.830933 
	C700.157104,359.574127 699.361023,362.766754 702.256287,365.791779 
	C737.420044,335.027802 774.328186,307.289948 821.040527,293.338074 
	C817.552917,291.998962 815.280090,292.263977 812.232361,292.500488 
z"/>
<path fill="#000000" opacity="1.000000" stroke="none" 
	d="
M893.010254,372.536774 
	C894.507385,372.370392 895.726196,372.120483 896.143188,374.094818 
	C892.911987,376.143768 889.084595,376.601837 885.551270,377.763000 
	C852.558289,388.605408 823.205383,405.908478 796.223999,427.562378 
	C765.849243,451.939697 739.166138,480.040070 713.315979,509.010010 
	C679.285095,547.148010 646.928406,586.759583 611.741699,623.884338 
	C571.972229,665.844299 528.146301,702.593018 477.153931,730.335388 
	C447.593414,746.417725 416.643158,758.712646 383.472107,765.013550 
	C381.249268,765.435791 378.971619,765.569641 376.655426,765.486755 
	C381.497070,762.751404 387.023041,762.432800 392.183624,760.911011 
	C417.215668,753.529358 441.034821,743.397766 463.486389,730.091675 
	C495.528015,711.101746 525.052063,688.730530 553.050964,664.193970 
	C580.274170,640.337219 604.833374,613.907898 629.310791,587.356934 
	C644.200745,571.205566 658.282593,554.346252 672.915100,537.979004 
	C689.864197,519.020386 705.963745,499.297913 723.888550,481.206299 
	C743.300842,461.613556 762.570740,441.901062 784.471863,424.975769 
	C804.537476,409.468903 825.435425,395.311523 848.708374,385.052368 
	C862.735657,378.868927 877.191406,373.854706 893.010254,372.536774 
z"/>
<path fill="#000000" opacity="1.000000" stroke="none" 
	d="
M453.379272,792.676575 
	C455.583252,788.463623 456.919098,791.145630 457.813324,793.010315 
	C461.978821,801.696594 465.959076,810.471497 470.041565,819.197937 
	C472.999146,825.519836 476.103363,831.775024 478.943817,838.148315 
	C479.737976,839.930115 481.648651,842.592163 478.872192,843.802368 
	C476.326355,844.911926 472.026123,846.105164 470.752930,842.882385 
	C467.308655,834.163940 460.397034,835.314209 453.411316,835.218262 
	C448.249878,835.147339 444.045593,835.368469 442.099792,841.364380 
	C441.145203,844.305847 435.070038,845.588745 432.469147,844.002808 
	C429.958252,842.471802 431.406097,840.399048 432.161163,838.736938 
	C437.247314,827.541199 442.462250,816.404114 447.622864,805.242126 
	C449.505646,801.169800 451.354004,797.081604 453.379272,792.676575 
M456.906250,818.037292 
	C456.123810,816.550171 455.246582,815.127930 453.865967,817.488098 
	C452.718445,819.449890 451.330811,821.393127 451.765015,824.063538 
	C454.329041,825.366150 456.745483,825.077271 459.128510,823.978088 
	C459.249542,821.675903 457.953735,820.247009 456.906250,818.037292 
z"/>
<path fill="#000000" opacity="1.000000" stroke="none" 
	d="
M637.864380,835.337280 
	C635.393616,835.340210 633.378052,835.513245 631.401550,835.308899 
	C626.664001,834.819031 622.969727,835.794495 621.267639,840.924072 
	C620.386353,843.580139 618.080627,844.493042 615.301208,844.522034 
	C610.895020,844.567993 609.507385,843.127625 611.346313,839.113647 
	C618.760437,822.930969 626.434326,806.867371 634.037781,790.771729 
	C634.144714,790.545227 634.580566,790.474060 634.919373,790.301758 
	C637.082214,790.815247 637.302490,792.904602 638.031738,794.460999 
	C644.667236,808.622437 651.279480,822.795410 657.749451,837.032837 
	C658.738281,839.208801 661.159546,842.243652 657.790955,843.957581 
	C654.485718,845.639160 650.631836,845.213623 649.035400,841.028809 
	C647.048950,835.821350 643.262756,834.673462 637.864380,835.337280 
M636.099426,824.750916 
	C639.877747,823.592529 639.425293,820.762207 634.490479,815.830872 
	C632.776184,818.328796 631.297424,820.814819 630.892273,823.700989 
	C632.354797,825.162048 633.948547,824.522461 636.099426,824.750916 
z"/>
<path fill="#000000" opacity="1.000000" stroke="none" 
	d="
M564.935303,821.535339 
	C567.498352,828.166321 567.063965,834.112366 562.294922,839.070068 
	C557.350098,844.210571 551.008911,846.049011 544.040771,844.950012 
	C539.922485,844.300476 536.172119,842.390198 532.592712,840.169983 
	C529.547668,838.281189 528.953369,836.048279 530.939087,833.105713 
	C532.682373,830.522278 534.550964,828.818298 537.874390,831.078613 
	C541.345764,833.439575 545.088135,835.212158 549.541870,834.661560 
	C552.145081,834.339783 553.936768,833.118469 554.620605,830.590515 
	C555.284424,828.136841 554.669312,826.079712 552.587524,824.378296 
	C549.232849,821.636658 544.923218,821.261719 541.172485,819.503784 
	C531.419067,814.932251 528.574585,804.710571 534.461853,795.708740 
	C540.250488,786.857788 557.463318,788.118286 563.768677,794.187744 
	C565.366821,795.726135 564.653137,797.118958 563.431946,798.523438 
	C561.884949,800.302979 561.114441,803.264343 557.677673,801.820435 
	C555.090332,800.733521 552.618835,799.249023 549.636536,799.384277 
	C546.367981,799.532471 543.472717,800.639709 542.729858,803.997498 
	C542.054749,807.048889 544.441772,808.882812 546.923401,810.080505 
	C549.613831,811.378845 552.453064,812.366211 555.211182,813.527649 
	C559.111511,815.170044 562.666931,817.258728 564.935303,821.535339 
z"/>
<path fill="#000000" opacity="1.000000" stroke="none" 
	d="
M348.292542,836.280396 
	C347.172546,833.282104 348.288208,831.410767 350.454987,830.005493 
	C352.625305,828.597961 354.591187,829.494141 356.494659,830.682800 
	C356.917694,830.946899 357.331146,831.231750 357.721863,831.541321 
	C360.668182,833.875671 363.771698,836.154236 367.647949,833.948975 
	C371.528839,831.741028 372.572418,827.810791 372.615570,823.662292 
	C372.709076,814.672791 372.728394,805.681213 372.638245,796.691833 
	C372.600006,792.878540 373.553619,789.913147 377.929260,789.837891 
	C382.438385,789.760193 383.265503,792.911987 383.255981,796.625854 
	C383.230774,806.448547 383.398560,816.273926 383.218994,826.093323 
	C383.047211,835.485107 378.284576,841.763855 369.822021,844.392944 
	C361.687653,846.920105 353.899445,844.085083 348.292542,836.280396 
z"/>
</svg>